<?xml version="1.0" encoding="utf-8"?>
<svg xmlns:xlink="http://www.w3.org/1999/xlink" xmlns="http://www.w3.org/2000/svg" version="1.1" style="display:none">
    <symbol id="o1">
    <path fill="#000" stroke="#000" stroke-width="2" d="m20 27h-2v-4-4h8 8v4 4h-2-2v-1-1h-4-4v1 1h-2zm-8-2h-2v-1-1h-2-2v-2-2h2 2v2 2h2 2v1 1h-2zm28 0h-2v-1-1h2 2v-2-2h2 2v2 2h-2-2v1 1h-2zm-20-8h-2v-2-2h2 2v2 2h-2zm12 0h-2v-2-2h2 2v2 2h-2zm-6 12h-4v-2-2h4 4v2 2h-4zm0 4h-8v-1-1h-4-4v-1-1h-2-2v-1-1h-2-2v-8-8h2 2v2 2h4 4v1 1h12 12v-1-1h4 4v-2-2h2 2v8 8h-2-2v1 1h-2-2v1 1h-4-4v1 1h-8zm0-4h4v-1-1h2 2v-1-1h4 4v-1-1h2 2v-2-2h-20-20v2 2h2 2v1 1h4 4v1 1h2 2v1 1h4zm-14-20h-2v-1-1h2 2v-1-1h4 4v1 1h4 4v-1-1h4 4v1 1h2 2v1 1h-2-2v-1-1h-4-4v1 1h-4-4v-1-1h-4-4v1 1h-2zm4 16h-2v-1-1h-2-2v-2-2h4 4v3 3h-2zm20 0h-2v-3-3h4 4v2 2h-2-2v1 1h-2zm-20-8h-2v-4-4h4 4v2 2h-2-2v2 2h-2zm20 0h-2v-2-2h-2-2v-2-2h4 4v4 4h-2z"/>
    <path d="m26 33h-8v-1-1h-4-4v-1-1h-2-2v-1-1h-2-2v-8-8h2 2v2 2h4 4v1 1h12 12v-1-1h4 4v-2-2h2 2v8 8h-2-2v1 1h-2-2v1 1h-4-4v1 1h-8zm0-4h4v-1-1h2 2v-1-1h4 4v-1-1h2 2v-2-2h-20-20v2 2h2 2v1 1h4 4v1 1h2 2v1 1h4z"/>
    <path fill="#fff" d="m16 25h-2v-1-1h-2-2v-2-2h4 4v3 3h-2zm20 0h-2v-3-3h4 4v2 2h-2-2v1 1h-2zm-20-8h-2v-4-4h4 4v2 2h-2-2v2 2h-2zm20 0h-2v-2-2h-2-2v-2-2h4 4v4 4h-2z"/>
    <path fill="#ff0" d="m12 9h-2v-1-1h2 2v-1-1h4 4v1 1h4 4v-1-1h4 4v1 1h2 2v1 1h-2-2v-1-1h-4-4v1 1h-4-4v-1-1h-4-4v1 1h-2z"/>
    <path fill="#f00" d="m26 29h-4v-2-2h4 4v2 2h-4z"/>
    </symbol>
    <symbol id="o2">
        <path fill="#000" stroke="#000" stroke-width="2" d="m26 33h-4v-2-2h-2-2v1 1h-4-4v-2-2h-2-2v-4-4h2 2v2 2h2 2v1 1h2 2v-3-3h8 8v3 3h2 2v-1-1h2 2v-2-2h2 2v4 4h-2-2v2 2h-4-4v-1-1h-2-2v2 2h-4zm0-4h4v-2-2h-4-4v2 2h4zm-6-12h-2v-2-2h2 2v2 2h-2zm12 0h-2v-2-2h2 2v2 2h-2zm-6 12h-4v-2-2h4 4v2 2h-4zm0 10h-8v-1-1h-4-4v-1-1h-2-2v-2-2h-2-2v-10-10h2 2v2 2h4 4v1 1h12 12v-1-1h4 4v-2-2h2 2v10 10h-2-2v2 2h-2-2v1 1h-4-4v1 1h-8zm-8-4h4v-1-1h4 4v1 1h4 4v-2-2h2 2v-2-2h2 2v-4-4h-20-20v4 4h2 2v2 2h2 2v2 2h4zm-6-28h-2v-1-1h2 2v-1-1h4 4v1 1h4 4v-1-1h4 4v1 1h2 2v1 1h-2-2v-1-1h-4-4v1 1h-4-4v-1-1h-4-4v1 1h-2zm6 28h-4v-2-2h2 2v-1-1h2 2v3 3h-4zm16 0h-4v-3-3h2 2v1 1h2 2v2 2h-4zm-18-10h-2v-1-1h-2-2v-2-2h4 4v3 3h-2zm20 0h-2v-3-3h4 4v2 2h-2-2v1 1h-2zm-20-8h-2v-4-4h4 4v2 2h-2-2v2 2h-2zm20 0h-2v-2-2h-2-2v-2-2h4 4v4 4h-2z"/>
        <path d="m26 39h-8v-1-1h-4-4v-1-1h-2-2v-2-2h-2-2v-10-10h2 2v2 2h4 4v1 1h12 12v-1-1h4 4v-2-2h2 2v10 10h-2-2v2 2h-2-2v1 1h-4-4v1 1h-8zm-8-4h4v-1-1h4 4v1 1h4 4v-2-2h2 2v-2-2h2 2v-4-4h-20-20v4 4h2 2v2 2h2 2v2 2h4z"/>
        <path fill="#fff" d="m18 35h-4v-2-2h2 2v-1-1h2 2v3 3h-4zm16 0h-4v-3-3h2 2v1 1h2 2v2 2h-4zm-18-10h-2v-1-1h-2-2v-2-2h4 4v3 3h-2zm20 0h-2v-3-3h4 4v2 2h-2-2v1 1h-2zm-20-8h-2v-4-4h4 4v2 2h-2-2v2 2h-2zm20 0h-2v-2-2h-2-2v-2-2h4 4v4 4h-2z"/>
        <path fill="#ff0" d="m12 7h-2v-1-1h2 2v-1-1h4 4v1 1h4 4v-1-1h4 4v1 1h2 2v1 1h-2-2v-1-1h-4-4v1 1h-4-4v-1-1h-4-4v1 1h-2z"/>
        <path fill="#f00" d="m26 29h-4v-2-2h4 4v2 2h-4z"/>
    </symbol>
    <symbol id="o3">
        <path fill="#000" stroke="#000" stroke-width="2" d="m26 39h-4v-3-3h-2-2v1 1h-4-4v-2-2h-2-2v-6-6h2 2v2 2h2 2v1 1h2 2v-3-3h8 8v3 3h2 2v-1-1h2 2v-2-2h2 2v6 6h-2-2v2 2h-4-4v-1-1h-2-2v3 3h-4zm0-6h4v-1-1h2 2v-1-1h-2-2v-1-1h-4-4v1 1h-2-2v1 1h2 2v1 1h4zm-6-16h-2v-2-2h2 2v2 2h-2zm12 0h-2v-2-2h2 2v2 2h-2zm-6 16h-4v-1-1h-2-2v-1-1h2 2v-1-1h4 4v1 1h2 2v1 1h-2-2v1 1h-4zm0 10h-12v-1-1h-2-2v-1-1h-2-2v-2-2h-2-2v-12-12h2 2v2 2h4 4v1 1h12 12v-1-1h4 4v-2-2h2 2v12 12h-2-2v2 2h-2-2v1 1h-2-2v1 1h-12zm0-4h12v-2-2h2 2v-2-2h2 2v-6-6h-20-20v6 6h2 2v2 2h2 2v2 2h12zm-14-34h-2v-1-1h2 2v-1-1h4 4v1 1h4 4v-1-1h4 4v1 1h2 2v1 1h-2-2v-1-1h-4-4v1 1h-4-4v-1-1h-4-4v1 1h-2zm6 34h-4v-2-2h2 2v-1-1h2 2v3 3h-4zm16 0h-4v-3-3h2 2v1 1h2 2v2 2h-4zm-18-14h-2v-1-1h-2-2v-2-2h4 4v3 3h-2zm20 0h-2v-3-3h4 4v2 2h-2-2v1 1h-2zm-20-8h-2v-4-4h4 4v2 2h-2-2v2 2h-2zm20 0h-2v-2-2h-2-2v-2-2h4 4v4 4h-2z"/>
        <path d="m26 43h-12v-1-1h-2-2v-1-1h-2-2v-2-2h-2-2v-12-12h2 2v2 2h4 4v1 1h12 12v-1-1h4 4v-2-2h2 2v12 12h-2-2v2 2h-2-2v1 1h-2-2v1 1h-12zm0-4h12v-2-2h2 2v-2-2h2 2v-6-6h-20-20v6 6h2 2v2 2h2 2v2 2h12z"/>
        <path fill="#fff" d="m18 39h-4v-2-2h2 2v-1-1h2 2v3 3h-4zm16 0h-4v-3-3h2 2v1 1h2 2v2 2h-4zm-18-14h-2v-1-1h-2-2v-2-2h4 4v3 3h-2zm20 0h-2v-3-3h4 4v2 2h-2-2v1 1h-2zm-20-8h-2v-4-4h4 4v2 2h-2-2v2 2h-2zm20 0h-2v-2-2h-2-2v-2-2h4 4v4 4h-2z"/>
        <path fill="#ff0" d="m12 5h-2v-1-1h2 2v-1-1h4 4v1 1h4 4v-1-1h4 4v1 1h2 2v1 1h-2-2v-1-1h-4-4v1 1h-4-4v-1-1h-4-4v1 1h-2z"/>
        <path fill="#f00" d="m26 33h-4v-1-1h-2-2v-1-1h2 2v-1-1h4 4v1 1h2 2v1 1h-2-2v1 1h-4z"/>
    </symbol>
    <symbol id="icon-olli" viewBox="0 0 52 44">
        <use xlink:href="#o3" class="olli-f1" opacity="1"/>
        <use xlink:href="#o2" class="olli-f2" opacity="0"/>
        <use xlink:href="#o1" class="olli-f3" opacity="0"/>
        <use xlink:href="#o2" class="olli-f4" opacity="0"/>
    </symbol>
    <symbol id="icon-codepen" viewBox="0 0 120 120">
        <path d="M60.048 0C26.884 0 0 26.9 0 60.048s26.884 60 60 60.047c33.163 0 60.047-26.883 60.047-60.047 S93.211 0 60 0z M60.048 110.233c-27.673 0-50.186-22.514-50.186-50.186S32.375 9.9 60 9.9 c27.672 0 50.2 22.5 50.2 50.186S87.72 110.2 60 110.233z"/>
        <path d="M97.147 48.319c-0.007-0.047-0.019-0.092-0.026-0.139c-0.016-0.09-0.032-0.18-0.056-0.268 c-0.014-0.053-0.033-0.104-0.05-0.154c-0.025-0.078-0.051-0.156-0.082-0.232c-0.021-0.053-0.047-0.105-0.071-0.156 c-0.033-0.072-0.068-0.143-0.108-0.211c-0.029-0.051-0.061-0.1-0.091-0.148c-0.043-0.066-0.087-0.131-0.135-0.193 c-0.035-0.047-0.072-0.094-0.109-0.139c-0.051-0.059-0.104-0.117-0.159-0.172c-0.042-0.043-0.083-0.086-0.127-0.125 c-0.059-0.053-0.119-0.104-0.181-0.152c-0.048-0.037-0.095-0.074-0.145-0.109c-0.019-0.012-0.035-0.027-0.053-0.039L61.817 23.5 c-1.072-0.715-2.468-0.715-3.54 0L24.34 46.081c-0.018 0.012-0.034 0.027-0.053 0.039c-0.05 0.035-0.097 0.072-0.144 0.1 c-0.062 0.049-0.123 0.1-0.181 0.152c-0.045 0.039-0.086 0.082-0.128 0.125c-0.056 0.055-0.108 0.113-0.158 0.2 c-0.038 0.045-0.075 0.092-0.11 0.139c-0.047 0.062-0.092 0.127-0.134 0.193c-0.032 0.049-0.062 0.098-0.092 0.1 c-0.039 0.068-0.074 0.139-0.108 0.211c-0.024 0.051-0.05 0.104-0.071 0.156c-0.031 0.076-0.057 0.154-0.082 0.2 c-0.017 0.051-0.035 0.102-0.05 0.154c-0.023 0.088-0.039 0.178-0.056 0.268c-0.008 0.047-0.02 0.092-0.025 0.1 c-0.019 0.137-0.029 0.275-0.029 0.416V71.36c0 0.1 0 0.3 0 0.418c0.006 0 0 0.1 0 0.1 c0.017 0.1 0 0.2 0.1 0.268c0.015 0.1 0 0.1 0.1 0.154c0.025 0.1 0.1 0.2 0.1 0.2 c0.021 0.1 0 0.1 0.1 0.154c0.034 0.1 0.1 0.1 0.1 0.213c0.029 0 0.1 0.1 0.1 0.1 c0.042 0.1 0.1 0.1 0.1 0.193c0.035 0 0.1 0.1 0.1 0.139c0.05 0.1 0.1 0.1 0.2 0.2 c0.042 0 0.1 0.1 0.1 0.125c0.058 0.1 0.1 0.1 0.2 0.152c0.047 0 0.1 0.1 0.1 0.1 c0.019 0 0 0 0.1 0.039L58.277 96.64c0.536 0.4 1.2 0.5 1.8 0.537c0.616 0 1.233-0.18 1.77-0.537 l33.938-22.625c0.018-0.012 0.034-0.027 0.053-0.039c0.05-0.035 0.097-0.072 0.145-0.109c0.062-0.049 0.122-0.1 0.181-0.152 c0.044-0.039 0.085-0.082 0.127-0.125c0.056-0.055 0.108-0.113 0.159-0.172c0.037-0.045 0.074-0.09 0.109-0.139 c0.048-0.062 0.092-0.127 0.135-0.193c0.03-0.049 0.062-0.098 0.091-0.146c0.04-0.07 0.075-0.141 0.108-0.213 c0.024-0.051 0.05-0.102 0.071-0.154c0.031-0.078 0.057-0.156 0.082-0.234c0.017-0.051 0.036-0.102 0.05-0.154 c0.023-0.088 0.04-0.178 0.056-0.268c0.008-0.045 0.02-0.092 0.026-0.137c0.018-0.139 0.028-0.277 0.028-0.418V48.735 C97.176 48.6 97.2 48.5 97.1 48.319z M63.238 32.073l25.001 16.666L77.072 56.21l-13.834-9.254V32.073z M56.856 32.1 v14.883L43.023 56.21l-11.168-7.471L56.856 32.073z M29.301 54.708l7.983 5.34l-7.983 5.34V54.708z M56.856 88.022L31.855 71.4 l11.168-7.469l13.833 9.252V88.022z M60.048 67.597l-11.286-7.549l11.286-7.549l11.285 7.549L60.048 67.597z M63.238 88.022V73.14 l13.834-9.252l11.167 7.469L63.238 88.022z M90.794 65.388l-7.982-5.34l7.982-5.34V65.388z"/>
    </symbol>
    <symbol id="icon-github" viewBox="0 0 16 16">
        <path d="M8 0C3.58 0 0 3.58 0 8c0 3.54 2.29 6.53 5.47 7.59 0.4 0.07 0.55-0.17 0.55-0.38 0-0.19-0.01-0.82-0.01-1.49-2.01 0.37-2.53-0.49-2.69-0.94-0.09-0.23-0.48-0.94-0.82-1.13-0.28-0.15-0.68-0.52-0.01-0.53 0.63-0.01 1.08 0.58 1.23 0.82 0.72 1.21 1.87 0.87 2.33 0.66 0.07-0.52 0.28-0.87 0.51-1.07-1.78-0.2-3.64-0.89-3.64-3.95 0-0.87 0.31-1.59 0.82-2.15-0.08-0.2-0.36-1.02 0.08-2.12 0 0 0.67-0.21 2.2 0.82 0.64-0.18 1.32-0.27 2-0.27 0.68 0 1.36 0.09 2 0.27 1.53-1.04 2.2-0.82 2.2-0.82 0.44 1.1 0.16 1.92 0.08 2.12 0.51 0.56 0.82 1.27 0.82 2.15 0 3.07-1.87 3.75-3.65 3.95 0.29 0.25 0.54 0.73 0.54 1.48 0 1.07-0.01 1.93-0.01 2.2 0 0.21 0.15 0.46 0.55 0.38C13.71 14.53 16 11.53 16 8 16 3.58 12.42 0 8 0z"></path>
    </symbol>
    <symbol id="icon-facebook" viewBox="0 0 32 32">
        <path d="M29 0h-26c-1.65 0-3 1.35-3 3v26c0 1.65 1.35 3 3 3h13v-14h-4v-4h4v-2c0-3.306 2.694-6 6-6h4v4h-4c-1.1 0-2 0.9-2 2v2h6l-1 4h-5v14h9c1.65 0 3-1.35 3-3v-26c0-1.65-1.35-3-3-3z"></path>
    </symbol>
    <symbol id="icon-twitter" viewBox="0 0 32 32">
        <path d="M32 7.075c-1.175 0.525-2.444 0.875-3.769 1.031 1.356-0.813 2.394-2.1 2.887-3.631-1.269 0.75-2.675 1.3-4.169 1.594-1.2-1.275-2.906-2.069-4.794-2.069-3.625 0-6.563 2.938-6.563 6.563 0 0.512 0.056 1.012 0.169 1.494-5.456-0.275-10.294-2.888-13.531-6.862-0.563 0.969-0.887 2.1-0.887 3.3 0 2.275 1.156 4.287 2.919 5.463-1.075-0.031-2.087-0.331-2.975-0.819 0 0.025 0 0.056 0 0.081 0 3.181 2.263 5.838 5.269 6.437-0.55 0.15-1.131 0.231-1.731 0.231-0.425 0-0.831-0.044-1.237-0.119 0.838 2.606 3.263 4.506 6.131 4.563-2.25 1.762-5.075 2.813-8.156 2.813-0.531 0-1.050-0.031-1.569-0.094 2.913 1.869 6.362 2.95 10.069 2.95 12.075 0 18.681-10.006 18.681-18.681 0-0.287-0.006-0.569-0.019-0.85 1.281-0.919 2.394-2.075 3.275-3.394z"></path>
    </symbol>
</svg>