<svg xmlns="http://www.w3.org/2000/svg" width="32" height="32" viewBox="0 0 32 32"><path d="M31.54.16C31.38.06 31.2 0 31 0s-.4.06-.56.17l-30 20c-.3.2-.47.56-.43.93.07.37.3.7.66.83l7.82 3.13 3.68 6.44c.18.3.5.5.86.5s.7-.2.87-.5l2.06-3.45 9.7 3.88c.12.05.24.07.37.07.18 0 .35-.04.5-.13.26-.15.44-.4.5-.7l5-30c.06-.4-.1-.8-.45-1zM3.14 20.78L26.3 5.33 9.47 23.36c-.1-.05-.17-.12-.27-.16l-6.06-2.42zm7.05 3.3c0-.02-.05-.02-.05-.02L29.13 3.78 12.98 28.94l-2.8-4.87zm15 5.52l-8.56-3.4c-.2-.1-.42-.1-.63-.13L29.2 5.7l-3.98 23.9z"/></svg>