<svg xmlns="http://www.w3.org/2000/svg" width="32" height="32" viewBox="0 0 32 32"><path d="M32 12.6c-.4-.8-1-1.4-2-1.6l-8.3-1.2L18 2.3c-.3-.8-1-1.3-2-1.3s-1.7.5-2 1.3l-3.7 7.5L2 11c-1 .2-1.6.8-2 1.6-.2.8 0 1.6.7 2.2l6 6-1.4 8.6c0 .8.3 1.7 1 2.2.4.3 1 .4 1.3.4.4 0 .8 0 1-.3l7.4-4 7.3 4c.3.2.7.3 1 .3.5 0 1 0 1.4-.4.7-.5 1-1.4 1-2.2L25.2 21l6-6.2c.7-.6 1-1.4.7-2.2zm-8.4 6.8c-.5.5-.8 1.2-.6 2l1.4 8.3-7.3-4h-2l-7.3 4L9 21.3c.2-.7 0-1.4-.6-2l-6-6 8.2-1.3c.8 0 1.5-.6 1.8-1.2L16 3.3l3.6 7.5c.3.6 1 1 1.8 1.2l8.3 1.3-6 6z"/></svg>