<?xml version="1.0" encoding="utf-8"?>
<!DOCTYPE svg PUBLIC "-//W3C//DTD SVG 1.1//EN" "http://www.w3.org/Graphics/SVG/1.1/DTD/svg11.dtd">
<svg  xmlns="http://www.w3.org/2000/svg" xmlns:xlink="http://www.w3.org/1999/xlink" version="1.1" width="80" height="80" viewBox="0 0 52 44">
<path stroke="#000" stroke-width="2" d="m26 33h-4v-2-2h-2-2v1 1h-4-4v-2-2h-2-2v-4-4h2 2v2 2h2 2v1 1h2 2v-3-3h8 8v3 3h2 2v-1-1h2 2v-2-2h2 2v4 4h-2-2v2 2h-4-4v-1-1h-2-2v2 2h-4zm0-4h4v-2-2h-4-4v2 2h4zm-6-12h-2v-2-2h2 2v2 2h-2zm12 0h-2v-2-2h2 2v2 2h-2zm-6 12h-4v-2-2h4 4v2 2h-4zm0 10h-8v-1-1h-4-4v-1-1h-2-2v-2-2h-2-2v-10-10h2 2v2 2h4 4v1 1h12 12v-1-1h4 4v-2-2h2 2v10 10h-2-2v2 2h-2-2v1 1h-4-4v1 1h-8zm-8-4h4v-1-1h4 4v1 1h4 4v-2-2h2 2v-2-2h2 2v-4-4h-20-20v4 4h2 2v2 2h2 2v2 2h4zm-6-28h-2v-1-1h2 2v-1-1h4 4v1 1h4 4v-1-1h4 4v1 1h2 2v1 1h-2-2v-1-1h-4-4v1 1h-4-4v-1-1h-4-4v1 1h-2zm6 28h-4v-2-2h2 2v-1-1h2 2v3 3h-4zm16 0h-4v-3-3h2 2v1 1h2 2v2 2h-4zm-18-10h-2v-1-1h-2-2v-2-2h4 4v3 3h-2zm20 0h-2v-3-3h4 4v2 2h-2-2v1 1h-2zm-20-8h-2v-4-4h4 4v2 2h-2-2v2 2h-2zm20 0h-2v-2-2h-2-2v-2-2h4 4v4 4h-2z"/>
<path fill="#6e3c85" d="m26 39h-8v-1-1h-4-4v-1-1h-2-2v-2-2h-2-2v-10-10h2 2v2 2h4 4v1 1h12 12v-1-1h4 4v-2-2h2 2v10 10h-2-2v2 2h-2-2v1 1h-4-4v1 1h-8zm-8-4h4v-1-1h4 4v1 1h4 4v-2-2h2 2v-2-2h2 2v-4-4h-20-20v4 4h2 2v2 2h2 2v2 2h4z"/>
<path fill="#fff" d="m18 35h-4v-2-2h2 2v-1-1h2 2v3 3h-4zm16 0h-4v-3-3h2 2v1 1h2 2v2 2h-4zm-18-10h-2v-1-1h-2-2v-2-2h4 4v3 3h-2zm20 0h-2v-3-3h4 4v2 2h-2-2v1 1h-2zm-20-8h-2v-4-4h4 4v2 2h-2-2v2 2h-2zm20 0h-2v-2-2h-2-2v-2-2h4 4v4 4h-2z"/>
<path fill="#ff0" d="m12 7h-2v-1-1h2 2v-1-1h4 4v1 1h4 4v-1-1h4 4v1 1h2 2v1 1h-2-2v-1-1h-4-4v1 1h-4-4v-1-1h-4-4v1 1h-2z"/>
<path fill="#f00" d="m26 29h-4v-2-2h4 4v2 2h-4z"/>
</svg>
