<?xml version="1.0" encoding="utf-8"?><!DOCTYPE svg PUBLIC "-//W3C//DTD SVG 1.1//EN" "http://www.w3.org/Graphics/SVG/1.1/DTD/svg11.dtd">
<svg xmlns="http://www.w3.org/2000/svg" xmlns:xlink="http://www.w3.org/1999/xlink"
   version="1.1"
   width="80"
   height="80"
   viewBox="0 0 250 250"
   >
<defs><g id="s1">
  <path
     d="M 185,230 H 65 V 220 H 45 V 210 H 25 V 190 H 5 V 70 h 20 v 20 h 40 v 10 H 185 V 90 h 40 V 70 h 20 v 120 h -20 v 20 h -20 v 10 h -20 v 10 z M 65,210 h 120 v -20 h 20 v -20 h 20 V 110 H 25 v 60 h 20 v 20 h 20 v 20 z"
     class="main"
     fill="#6811ff" />
  <path
     d="m 65,25 h 40 m 40,0 h 40 M 45,35 h 20 m 40,0 h 40 m 40,0 h 20"
     fill="#ff0000" />
  <path
     d="M 205,40 H 185 V 30 H 145 V 20 h 40 v 10 h 20 v 10 z m -60,0 H 105 V 30 H 65 V 20 h 40 v 10 h 40 V 40 z M 65,40 H 45 V 30 h 20 v 10 z"
     fill="#ff0000" />
  <polygon
     points="105,170 85,170 85,160 105,160 105,150 145,150 145,160 165,160 165,170 145,170 145,180 105,180 "
    fill="#ff0000" />
  <path
     d="M 185,100 H 165 V 80 H 145 V 60 h 40 v 40 z M 85,100 H 65 V 60 h 40 V 80 H 85 v 20 z"
     fill="#ffffff" />
  <path
     d="m 185,210 h -40 v -30 h 20 v 10 h 20 v 20 z m -80,0 H 65 v -20 h 20 v -10 h 20 v 30 z m 80,-70 h -20 v -30 h 40 v 20 h -20 v 10 z M 85,140 H 65 V 130 H 45 v -20 h 40 v 30 z"
     fill="#ffffff" />
  <path
     d="M 165,100 H 145 V 80 h 20 v 20 z m -60,0 H 85 V 80 h 20 v 20 z"
     fill="#000000" />
  <path
     d="m 25,115 h 20 m 40,0 h 80 m 40,0 h 20 M 25,125 h 20 m 40,0 h 80 m 40,0 h 20 M 25,135 h 40 m 20,0 h 80 m 20,0 h 40 M 25,145 H 225 M 25,155 h 80 m 40,0 h 80 M 25,165 h 60 m 80,0 h 60 M 45,175 h 60 m 40,0 h 60 M 45,185 h 40 m 20,0 h 40 m 20,0 h 40 m -100,10 h 40 m -40,10 h 40"
     fill="#000000" />
  <polygon
     points="105,180 85,180 85,190 45,190 45,170 25,170 25,110 45,110 45,130 65,130 65,140 85,140 85,110 165,110 165,140 185,140 185,130 205,130 205,110 225,110 225,170 205,170 205,190 165,190 165,180 145,180 145,170 165,170 165,160 145,160 145,150 105,150 105,160 85,160 85,170 105,170 105,180 145,180 145,210 105,210 "
     fill="#000000" />
</g></defs>
<use xlink:href="#s1" stroke="#000" stroke-width="11"/><use xlink:href="#s1"/>
</svg>
