<svg xmlns="http://www.w3.org/2000/svg"><defs><g id="olli-s1"> <path d="M 185,230 H 65 V 220 H 45 V 210 H 25 V 190 H 5 V 70 h 20 v 20 h 40 v 10 H 185 V 90 h 40 V 70 h 20 v 120 h -20 v 20 h -20 v 10 h -20 v 10 z M 65,210 h 120 v -20 h 20 v -20 h 20 V 110 H 25 v 60 h 20 v 20 h 20 v 20 z" class="main" fill="#6811ff"/> <path d="m 65,25 h 40 m 40,0 h 40 M 45,35 h 20 m 40,0 h 40 m 40,0 h 20" fill="#ff0000"/> <path d="M 205,40 H 185 V 30 H 145 V 20 h 40 v 10 h 20 v 10 z m -60,0 H 105 V 30 H 65 V 20 h 40 v 10 h 40 V 40 z M 65,40 H 45 V 30 h 20 v 10 z" fill="#ff0000"/> <polygon points="105,170 85,170 85,160 105,160 105,150 145,150 145,160 165,160 165,170 145,170 145,180 105,180 " fill="#ff0000"/> <path d="M 185,100 H 165 V 80 H 145 V 60 h 40 v 40 z M 85,100 H 65 V 60 h 40 V 80 H 85 v 20 z" fill="#ffffff"/> <path d="m 185,210 h -40 v -30 h 20 v 10 h 20 v 20 z m -80,0 H 65 v -20 h 20 v -10 h 20 v 30 z m 80,-70 h -20 v -30 h 40 v 20 h -20 v 10 z M 85,140 H 65 V 130 H 45 v -20 h 40 v 30 z" fill="#ffffff"/> <path d="M 165,100 H 145 V 80 h 20 v 20 z m -60,0 H 85 V 80 h 20 v 20 z" fill="#000000"/> <path d="m 25,115 h 20 m 40,0 h 80 m 40,0 h 20 M 25,125 h 20 m 40,0 h 80 m 40,0 h 20 M 25,135 h 40 m 20,0 h 80 m 20,0 h 40 M 25,145 H 225 M 25,155 h 80 m 40,0 h 80 M 25,165 h 60 m 80,0 h 60 M 45,175 h 60 m 40,0 h 60 M 45,185 h 40 m 20,0 h 40 m 20,0 h 40 m -100,10 h 40 m -40,10 h 40" fill="#000000"/> <polygon points="105,180 85,180 85,190 45,190 45,170 25,170 25,110 45,110 45,130 65,130 65,140 85,140 85,110 165,110 165,140 185,140 185,130 205,130 205,110 225,110 225,170 205,170 205,190 165,190 165,180 145,180 145,170 165,170 165,160 145,160 145,150 105,150 105,160 85,160 85,170 105,170 105,180 145,180 145,210 105,210 " fill="#000000"/> </g></defs><symbol viewBox="0 0 120 120" id="icon-codepen"><title>codepen</title> <path class="outer-ring" d="M60.048 0C26.884 0 0 26.9 0 60.048s26.884 60 60 60.047c33.163 0 60.047-26.883 60.047-60.047 S93.211 0 60 0z M60.048 110.233c-27.673 0-50.186-22.514-50.186-50.186S32.375 9.9 60 9.9 c27.672 0 50.2 22.5 50.2 50.186S87.72 110.2 60 110.233z"/> <path class="inner-box" d="M97.147 48.319c-0.007-0.047-0.019-0.092-0.026-0.139c-0.016-0.09-0.032-0.18-0.056-0.268 c-0.014-0.053-0.033-0.104-0.05-0.154c-0.025-0.078-0.051-0.156-0.082-0.232c-0.021-0.053-0.047-0.105-0.071-0.156 c-0.033-0.072-0.068-0.143-0.108-0.211c-0.029-0.051-0.061-0.1-0.091-0.148c-0.043-0.066-0.087-0.131-0.135-0.193 c-0.035-0.047-0.072-0.094-0.109-0.139c-0.051-0.059-0.104-0.117-0.159-0.172c-0.042-0.043-0.083-0.086-0.127-0.125 c-0.059-0.053-0.119-0.104-0.181-0.152c-0.048-0.037-0.095-0.074-0.145-0.109c-0.019-0.012-0.035-0.027-0.053-0.039L61.817 23.5 c-1.072-0.715-2.468-0.715-3.54 0L24.34 46.081c-0.018 0.012-0.034 0.027-0.053 0.039c-0.05 0.035-0.097 0.072-0.144 0.1 c-0.062 0.049-0.123 0.1-0.181 0.152c-0.045 0.039-0.086 0.082-0.128 0.125c-0.056 0.055-0.108 0.113-0.158 0.2 c-0.038 0.045-0.075 0.092-0.11 0.139c-0.047 0.062-0.092 0.127-0.134 0.193c-0.032 0.049-0.062 0.098-0.092 0.1 c-0.039 0.068-0.074 0.139-0.108 0.211c-0.024 0.051-0.05 0.104-0.071 0.156c-0.031 0.076-0.057 0.154-0.082 0.2 c-0.017 0.051-0.035 0.102-0.05 0.154c-0.023 0.088-0.039 0.178-0.056 0.268c-0.008 0.047-0.02 0.092-0.025 0.1 c-0.019 0.137-0.029 0.275-0.029 0.416V71.36c0 0.1 0 0.3 0 0.418c0.006 0 0 0.1 0 0.1 c0.017 0.1 0 0.2 0.1 0.268c0.015 0.1 0 0.1 0.1 0.154c0.025 0.1 0.1 0.2 0.1 0.2 c0.021 0.1 0 0.1 0.1 0.154c0.034 0.1 0.1 0.1 0.1 0.213c0.029 0 0.1 0.1 0.1 0.1 c0.042 0.1 0.1 0.1 0.1 0.193c0.035 0 0.1 0.1 0.1 0.139c0.05 0.1 0.1 0.1 0.2 0.2 c0.042 0 0.1 0.1 0.1 0.125c0.058 0.1 0.1 0.1 0.2 0.152c0.047 0 0.1 0.1 0.1 0.1 c0.019 0 0 0 0.1 0.039L58.277 96.64c0.536 0.4 1.2 0.5 1.8 0.537c0.616 0 1.233-0.18 1.77-0.537 l33.938-22.625c0.018-0.012 0.034-0.027 0.053-0.039c0.05-0.035 0.097-0.072 0.145-0.109c0.062-0.049 0.122-0.1 0.181-0.152 c0.044-0.039 0.085-0.082 0.127-0.125c0.056-0.055 0.108-0.113 0.159-0.172c0.037-0.045 0.074-0.09 0.109-0.139 c0.048-0.062 0.092-0.127 0.135-0.193c0.03-0.049 0.062-0.098 0.091-0.146c0.04-0.07 0.075-0.141 0.108-0.213 c0.024-0.051 0.05-0.102 0.071-0.154c0.031-0.078 0.057-0.156 0.082-0.234c0.017-0.051 0.036-0.102 0.05-0.154 c0.023-0.088 0.04-0.178 0.056-0.268c0.008-0.045 0.02-0.092 0.026-0.137c0.018-0.139 0.028-0.277 0.028-0.418V48.735 C97.176 48.6 97.2 48.5 97.1 48.319z M63.238 32.073l25.001 16.666L77.072 56.21l-13.834-9.254V32.073z M56.856 32.1 v14.883L43.023 56.21l-11.168-7.471L56.856 32.073z M29.301 54.708l7.983 5.34l-7.983 5.34V54.708z M56.856 88.022L31.855 71.4 l11.168-7.469l13.833 9.252V88.022z M60.048 67.597l-11.286-7.549l11.286-7.549l11.285 7.549L60.048 67.597z M63.238 88.022V73.14 l13.834-9.252l11.167 7.469L63.238 88.022z M90.794 65.388l-7.982-5.34l7.982-5.34V65.388z"/> </symbol><symbol viewBox="0 0 32 32" id="icon-cool"><title>cool</title> <path d="M16 32c8.837 0 16-7.163 16-16s-7.163-16-16-16-16 7.163-16 16 7.163 16 16 16zM16 3c7.18 0 13 5.82 13 13s-5.82 13-13 13-13-5.82-13-13 5.82-13 13-13zM25 8c0.55 0 1 0.45 1 1v3c0 1.1-0.9 2-2 2h-4c-1.1 0-2-0.9-2-2h-4c0 1.1-0.9 2-2 2h-4c-1.1 0-2-0.9-2-2v-3c0-0.55 0.45-1 1-1h6c0.55 0 1 0.45 1 1v1h4v-1c0-0.55 0.45-1 1-1h6zM16 24c2.913 0 5.462-1.557 6.861-3.884l1.715 1.029c-1.749 2.908-4.935 4.855-8.576 4.855-1.514 0-2.95-0.337-4.236-0.94l1.036-1.727c0.98 0.429 2.061 0.668 3.199 0.668z"/> </symbol><symbol viewBox="0 0 32 32" id="icon-facebook"><title>facebook</title> <path d="M29 0h-26c-1.65 0-3 1.35-3 3v26c0 1.65 1.35 3 3 3h13v-14h-4v-4h4v-2c0-3.306 2.694-6 6-6h4v4h-4c-1.1 0-2 0.9-2 2v2h6l-1 4h-5v14h9c1.65 0 3-1.35 3-3v-26c0-1.65-1.35-3-3-3z"/> </symbol><symbol viewBox="0 0 16 16" id="icon-github"><title>github</title> <path d="M8 0C3.58 0 0 3.58 0 8c0 3.54 2.29 6.53 5.47 7.59 0.4 0.07 0.55-0.17 0.55-0.38 0-0.19-0.01-0.82-0.01-1.49-2.01 0.37-2.53-0.49-2.69-0.94-0.09-0.23-0.48-0.94-0.82-1.13-0.28-0.15-0.68-0.52-0.01-0.53 0.63-0.01 1.08 0.58 1.23 0.82 0.72 1.21 1.87 0.87 2.33 0.66 0.07-0.52 0.28-0.87 0.51-1.07-1.78-0.2-3.64-0.89-3.64-3.95 0-0.87 0.31-1.59 0.82-2.15-0.08-0.2-0.36-1.02 0.08-2.12 0 0 0.67-0.21 2.2 0.82 0.64-0.18 1.32-0.27 2-0.27 0.68 0 1.36 0.09 2 0.27 1.53-1.04 2.2-0.82 2.2-0.82 0.44 1.1 0.16 1.92 0.08 2.12 0.51 0.56 0.82 1.27 0.82 2.15 0 3.07-1.87 3.75-3.65 3.95 0.29 0.25 0.54 0.73 0.54 1.48 0 1.07-0.01 1.93-0.01 2.2 0 0.21 0.15 0.46 0.55 0.38C13.71 14.53 16 11.53 16 8 16 3.58 12.42 0 8 0z"/> </symbol><symbol viewBox="0 0 32 32" id="icon-google"><title>google</title> <path d="M10.181 14.294v3.494h5.775c-0.231 1.5-1.744 4.394-5.775 4.394-3.475 0-6.313-2.881-6.313-6.431s2.838-6.431 6.313-6.431c1.981 0 3.3 0.844 4.056 1.569l2.762-2.662c-1.775-1.656-4.075-2.662-6.819-2.662-5.631 0.006-10.181 4.556-10.181 10.188s4.55 10.181 10.181 10.181c5.875 0 9.775-4.131 9.775-9.95 0-0.669-0.075-1.181-0.163-1.688h-9.613z"/> <path d="M32 14h-3v-3h-3v3h-3v3h3v3h3v-3h3z"/> </symbol><symbol viewBox="0 0 33 32" id="icon-invader"><title>invader</title> <path d="M29.963 24.982v-5.947h-2.91v5.969h-3.037v2.953h-7.048v-2.975h7.048v-2.972h-14.991v2.973l6.030 0.021v2.973h-6.051v-2.951h-3.036v-6.010h-2.911v5.947h-3.057v-9.004h2.995v-2.891h2.973v-3.057h3.057v-2.994h2.994v3.003l8.983 0.024v-3.027h2.994v3.036h3.057v2.974h2.953v2.973h3.014v8.982h-3.057zM12.019 13.005h-2.994v2.995h2.994v-2.995zM23.996 13.005h-2.994v2.995h2.994v-2.995zM5.968 4.023h3.057v2.994h-3.057v-2.994zM27.053 4.023v2.994h-3.057v-2.994h3.057z"/> </symbol><symbol viewBox="0 0 250 250" id="icon-olli"><title>olli</title>  <use xlink:href="#olli-s1" stroke="#000" stroke-width="11"/><use xlink:href="#olli-s1"/> </symbol><symbol viewBox="0 0 32 32" id="icon-twitter"><title>twitter</title> <path d="M32 7.075c-1.175 0.525-2.444 0.875-3.769 1.031 1.356-0.813 2.394-2.1 2.887-3.631-1.269 0.75-2.675 1.3-4.169 1.594-1.2-1.275-2.906-2.069-4.794-2.069-3.625 0-6.563 2.938-6.563 6.563 0 0.512 0.056 1.012 0.169 1.494-5.456-0.275-10.294-2.888-13.531-6.862-0.563 0.969-0.887 2.1-0.887 3.3 0 2.275 1.156 4.287 2.919 5.463-1.075-0.031-2.087-0.331-2.975-0.819 0 0.025 0 0.056 0 0.081 0 3.181 2.263 5.838 5.269 6.437-0.55 0.15-1.131 0.231-1.731 0.231-0.425 0-0.831-0.044-1.237-0.119 0.838 2.606 3.263 4.506 6.131 4.563-2.25 1.762-5.075 2.813-8.156 2.813-0.531 0-1.050-0.031-1.569-0.094 2.913 1.869 6.362 2.95 10.069 2.95 12.075 0 18.681-10.006 18.681-18.681 0-0.287-0.006-0.569-0.019-0.85 1.281-0.919 2.394-2.075 3.275-3.394z"/> </symbol></svg>