<svg xmlns="http://www.w3.org/2000/svg" xmlns:xlink="http://www.w3.org/1999/xlink"><defs> <g id="olli-s1"> <g> <path d="M185,230H65v-10H45v-10H25v-20H5V70h20v20h40v10h120V90h40V70h20v120h-20v20h-20v10h-20V230z M65,210h120
			v-20h20v-20h20v-60H25v60h20v20h20V210z"/> </g> <g> <path fill="#F00" d="M65,25h40 M145,25h40 M45,35h20 M105,35h40 M185,35h20"/> <path fill="#F00" d="M205,40h-20V30h-40V20h40v10h20V40z M145,40h-40V30H65V20h40v10h40V40z M65,40H45V30h20V40z"/> <polygon fill="#F00" points="145,180 105,180 105,170 85,170 85,160 105,160 105,150 145,150 145,160 165,160 165,170 145,170"/> </g> <g> <path fill="#FFF" d="M185,100h-20V80h-20V60h40V100z M85,100H65V60h40v20H85V100z"/> <path fill="#FFF" d="M185,210h-40v-30h20v10h20V210z M105,210H65v-20h20v-10h20V210z M185,140h-20v-30h40v20h-20V140z M85,140
			H65v-10H45v-20h40V140z"/> </g> <g> <path fill="#000" d="M165,100h-20V80h20V100z M105,100H85V80h20V100z"/> <path fill="#000" d="M25,115h20 M85,115h80 M205,115h20 M25,125h20 M85,125h80 M205,125h20 M25,135h40 M85,135h80 M185,135h40 M25,145h200
			 M25,155h80 M145,155h80 M25,165h60 M165,165h60 M45,175h60 M145,175h60 M45,185h40 M105,185h40 M165,185h40 M105,195h40 M105,205
			h40"/> <polygon fill="#000" points="145,210 105,210 105,180 85,180 85,190 45,190 45,170 25,170 25,110 45,110 45,130 65,130 65,140 85,140 85,110
			165,110 165,140 185,140 185,130 205,130 205,110 225,110 225,170 205,170 205,190 165,190 165,180 145,180 145,170 165,170
			165,160 145,160 145,150 105,150 105,160 85,160 85,170 105,170 105,180 145,180"/> </g> </g> </defs><symbol viewBox="0 0 250 250" id="icon-olli"><title>olli</title>  <use xlink:href="#olli-s1" stroke="#000" stroke-width="11"/> <use xlink:href="#olli-s1"/> </symbol></svg>